<svg width="242" height="53" viewBox="0 0 242 53" fill="none" xmlns="http://www.w3.org/2000/svg">
<path fill-rule="evenodd" clip-rule="evenodd" d="M0 0C0 0 20.7931 8.48095 36 16.4048C44.6154 20.894 51.3327 25.157 58.7196 29.845C64.3711 33.4316 70.4146 37.2671 78 41.6429C92.2917 49.8874 103.645 52.9066 120.217 52.9979C120.219 52.9993 120.22 53 120.222 53C120.352 53 120.482 52.9998 120.611 52.9995C120.74 52.9998 120.87 53 121 53C121.002 53 121.004 52.9993 121.005 52.9979C137.577 52.9066 148.93 49.8874 163.222 41.6429C170.808 37.2671 176.851 33.4316 182.503 29.845C189.889 25.157 196.607 20.894 205.222 16.4048C220.429 8.48095 241.222 0 241.222 0H121H120.222H0Z" fill="#7694FF"/>
<path d="M132.875 38.875L124.625 30.625M127.375 23.75C127.375 25.014 127.126 26.2656 126.642 27.4333C126.159 28.6011 125.45 29.6621 124.556 30.5559C123.662 31.4497 122.601 32.1586 121.433 32.6423C120.266 33.126 119.014 33.375 117.75 33.375C116.486 33.375 115.234 33.126 114.067 32.6423C112.899 32.1586 111.838 31.4497 110.944 30.5559C110.05 29.6621 109.341 28.6011 108.858 27.4333C108.374 26.2656 108.125 25.014 108.125 23.75C108.125 21.1973 109.139 18.7491 110.944 16.9441C112.749 15.1391 115.197 14.125 117.75 14.125C120.303 14.125 122.751 15.1391 124.556 16.9441C126.361 18.7491 127.375 21.1973 127.375 23.75Z" stroke="white" stroke-width="3" stroke-linecap="round" stroke-linejoin="round"/>
</svg>
